<?xml version="1.0" encoding="UTF-8" standalone="no"?>
<svg
   width="90"
   height="90"
   viewBox="0 0 90 90.000003"
   class="flicon-logo-fullcolor"
   version="1.1"
   id="svg12"
   xml:space="preserve"
   sodipodi:docname="button-close.svg"
   inkscape:version="1.2.2 (b0a8486541, 2022-12-01)"
   xmlns:inkscape="http://www.inkscape.org/namespaces/inkscape"
   xmlns:sodipodi="http://sodipodi.sourceforge.net/DTD/sodipodi-0.dtd"
   xmlns="http://www.w3.org/2000/svg"
   xmlns:svg="http://www.w3.org/2000/svg"
   xmlns:rdf="http://www.w3.org/1999/02/22-rdf-syntax-ns#"
   xmlns:cc="http://creativecommons.org/ns#"
   xmlns:dc="http://purl.org/dc/elements/1.1/"><sodipodi:namedview
     id="namedview189"
     pagecolor="#ffffff"
     bordercolor="#000000"
     borderopacity="0.25"
     inkscape:showpageshadow="2"
     inkscape:pageopacity="0.0"
     inkscape:pagecheckerboard="0"
     inkscape:deskcolor="#d1d1d1"
     showgrid="false"
     inkscape:zoom="4.3290648"
     inkscape:cx="41.001927"
     inkscape:cy="40.07794"
     inkscape:window-width="1366"
     inkscape:window-height="696"
     inkscape:window-x="0"
     inkscape:window-y="0"
     inkscape:window-maximized="1"
     inkscape:current-layer="svg12" /><defs
     id="defs16" /><title
     id="title2">Freelancer Logo</title><metadata
     id="metadata299"><rdf:RDF><cc:Work
         rdf:about=""><dc:title>Freelancer Logo</dc:title></cc:Work></rdf:RDF></metadata><path
     id="path9392"
     style="fill:#ffffff;fill-opacity:1;stroke:none;stroke-width:3.9;stroke-linecap:round;stroke-linejoin:round;stroke-dasharray:none;stroke-opacity:1"
     d="m 69.152117,16.467137 c -2.858008,-2.858007 -7.45856,-2.858017 -10.316578,0 L 45.000001,30.302675 31.164462,16.467137 c -2.85801,-2.858017 -7.461322,-2.858018 -10.319339,0 l -4.377986,4.377985 c -2.858013,2.858007 -2.858008,7.461332 0,10.319339 L 30.302676,45 16.467138,58.835538 c -2.858398,2.858018 -2.856637,7.459942 0.0014,10.317959 l 4.379366,4.379366 c 2.858008,2.858007 7.45856,2.858018 10.316577,0 l 13.83552,-13.835538 13.835538,13.835538 c 2.85801,2.858017 7.461322,2.858018 10.31934,0 l 4.377985,-4.377985 c 2.858012,-2.858008 2.858007,-7.461333 0,-10.31934 L 59.697326,45 73.532864,31.164462 c 2.858397,-2.858017 2.856637,-7.459942 -0.0014,-10.317959 z" /></svg>
