<?xml version="1.0" encoding="UTF-8" standalone="no"?>
<!-- Created with Inkscape (http://www.inkscape.org/) -->

<svg
   width="635mm"
   height="476.25mm"
   viewBox="0 0 635 476.25"
   version="1.1"
   id="svg5"
   xml:space="preserve"
   inkscape:version="1.2.2 (b0a8486541, 2022-12-01)"
   sodipodi:docname="loader.svg"
   xmlns:inkscape="http://www.inkscape.org/namespaces/inkscape"
   xmlns:sodipodi="http://sodipodi.sourceforge.net/DTD/sodipodi-0.dtd"
   xmlns="http://www.w3.org/2000/svg"
   xmlns:svg="http://www.w3.org/2000/svg"><sodipodi:namedview
     id="namedview7"
     pagecolor="#ffffff"
     bordercolor="#000000"
     borderopacity="0.25"
     inkscape:showpageshadow="2"
     inkscape:pageopacity="0.0"
     inkscape:pagecheckerboard="0"
     inkscape:deskcolor="#d1d1d1"
     inkscape:document-units="mm"
     showgrid="false"
     inkscape:zoom="0.18614378"
     inkscape:cx="1310.8147"
     inkscape:cy="937.4474"
     inkscape:window-width="1366"
     inkscape:window-height="736"
     inkscape:window-x="0"
     inkscape:window-y="0"
     inkscape:window-maximized="1"
     inkscape:current-layer="layer1" /><defs
     id="defs2" /><g
     inkscape:label="Layer 1"
     inkscape:groupmode="layer"
     id="layer1"
     transform="translate(242.11929,98.419418)"><g
       inkscape:label="Layer 1"
       id="layer1-3"
       transform="translate(-174.89945,-8.7945169)"><g
         id="g1"
         transform="matrix(1.0197144,0,0,1.0197144,28.139616,-7.5311737)"
         style="stroke-width:0.980667"><g
           id="g13"><path
             id="rect22"
             style="fill:#e6e6e6;fill-opacity:1;stroke-width:1.96133;stroke-linecap:square;paint-order:markers fill stroke"
             d="m 87.074847,103.98134 c -20.682484,0 -37.332996,16.65051 -37.332996,37.33299 v 23.40078 c 0,20.68248 16.650512,37.333 37.332996,37.333 20.682483,0 37.332993,-16.65052 37.332993,-37.333 v -23.40078 c 0,-20.68248 -16.65051,-37.33299 -37.332993,-37.33299 z m -0.250346,23.13827 c 2.320992,-0.0348 4.667926,0.3997 6.896175,1.32268 6.482194,2.68504 10.716744,9.02403 10.716744,16.04039 v 17.06358 c 0,9.56242 -7.800657,17.36257 -17.36308,17.36257 -9.562422,0 -17.362569,-7.80015 -17.362569,-17.36257 0,-9.56239 7.800147,-17.36308 17.362569,-17.36308 5.049438,0 9.521923,2.27125 12.698733,5.73161 v -5.43211 c 0,-5.14322 -3.086033,-9.76712 -7.83776,-11.73535 -4.751728,-1.96823 -10.204629,-0.88254 -13.841507,2.75431 l -1.649042,1.64904 -3.298589,-3.29808 1.649041,-1.64955 c 3.255788,-3.25582 7.59837,-5.01714 12.029285,-5.08344 z m 0.250346,21.72791 c -7.041842,0 -12.698732,5.65689 -12.698732,12.69874 0,7.04184 5.65689,12.69822 12.698732,12.69822 7.041842,0 12.698226,-5.65638 12.698226,-12.69822 0,-7.04185 -5.656384,-12.69874 -12.698226,-12.69874 z" /></g><g
           id="g14"
           transform="translate(87.180691)"><path
             id="path13"
             style="fill:#e6e6e6;fill-opacity:1;stroke-width:1.96133;stroke-linecap:square;paint-order:markers fill stroke"
             d="m 87.074712,103.98125 c 20.682508,0 37.333048,16.65054 37.333048,37.33305 v 23.40058 c 0,20.6825 -16.65054,37.33304 -37.333048,37.33304 -20.682505,0 -37.333043,-16.65054 -37.333043,-37.33304 V 141.3143 c 0,-20.68251 16.650538,-37.33305 37.333043,-37.33305 z" /></g><g
           id="g16"
           transform="translate(174.36138)"><path
             id="path15"
             style="fill:#e6e6e6;fill-opacity:1;stroke-width:1.96133;stroke-linecap:square;paint-order:markers fill stroke"
             d="m 87.074712,103.98125 c 20.682508,0 37.333048,16.65054 37.333048,37.33305 v 23.40058 c 0,20.6825 -16.65054,37.33304 -37.333048,37.33304 -20.682505,0 -37.333043,-16.65054 -37.333043,-37.33304 V 141.3143 c 0,-20.68251 16.650538,-37.33305 37.333043,-37.33305 z" /></g><g
           id="g18"
           transform="translate(261.54207)"><path
             id="path17"
             style="fill:#e6e6e6;fill-opacity:1;stroke-width:1.96133;stroke-linecap:square;paint-order:markers fill stroke"
             d="m 87.074712,103.98125 c 20.682508,0 37.333048,16.65054 37.333048,37.33305 v 23.40058 c 0,20.6825 -16.65054,37.33304 -37.333048,37.33304 -20.682505,0 -37.333043,-16.65054 -37.333043,-37.33304 V 141.3143 c 0,-20.68251 16.650538,-37.33305 37.333043,-37.33305 z" /></g></g><g
         id="g10"
         transform="matrix(0.79867555,0,0,0.79867555,-197.962,44.234836)"
         style="stroke-width:1.25207" /></g></g></svg>
