<?xml version="1.0" encoding="UTF-8" standalone="no"?>
<!-- Created with Inkscape (http://www.inkscape.org/) -->

<svg
   width="234.95mm"
   height="59.795837mm"
   viewBox="0 0 234.95 59.795837"
   version="1.1"
   id="svg5"
   inkscape:version="1.2.2 (b0a8486541, 2022-12-01)"
   sodipodi:docname=".svg"
   xml:space="preserve"
   xmlns:inkscape="http://www.inkscape.org/namespaces/inkscape"
   xmlns:sodipodi="http://sodipodi.sourceforge.net/DTD/sodipodi-0.dtd"
   xmlns="http://www.w3.org/2000/svg"
   xmlns:svg="http://www.w3.org/2000/svg"><sodipodi:namedview
     id="namedview7"
     pagecolor="#ffffff"
     bordercolor="#000000"
     borderopacity="0.25"
     inkscape:showpageshadow="2"
     inkscape:pageopacity="0.0"
     inkscape:pagecheckerboard="0"
     inkscape:deskcolor="#d1d1d1"
     inkscape:document-units="mm"
     showgrid="false"
     inkscape:zoom="0.98171998"
     inkscape:cx="374.85231"
     inkscape:cy="579.0857"
     inkscape:window-width="1366"
     inkscape:window-height="696"
     inkscape:window-x="0"
     inkscape:window-y="0"
     inkscape:window-maximized="1"
     inkscape:current-layer="layer1" /><defs
     id="defs2" /><g
     inkscape:label="Layer 1"
     inkscape:groupmode="layer"
     id="layer1"
     transform="translate(-237.93767,-170.30142)"><path
       style="fill:#090c08;fill-opacity:1;stroke-width:0.264583"
       d="m 410.14127,217.80687 c -2.09921,-0.35432 -4.32669,-1.52714 -5.74137,-3.02296 -2.31557,-2.44837 -3.21153,-4.99884 -3.21153,-9.14201 0,-4.25254 1.07777,-7.15791 3.49355,-9.41758 4.35045,-4.06934 12.59984,-3.93101 16.58058,0.27804 2.35688,2.49205 3.24371,4.99079 3.24371,9.13954 0,4.14875 -0.88683,6.64749 -3.24371,9.13954 -2.52416,2.66893 -6.62457,3.78441 -11.12123,3.02543 z m 5.79144,-3.99711 c 1.36015,-0.65212 2.31689,-1.74254 3.22004,-3.66994 0.6089,-1.29946 0.68188,-1.78088 0.68188,-4.49792 0,-2.71704 -0.073,-3.19846 -0.68188,-4.49792 -1.43799,-3.0688 -3.26001,-4.31115 -6.32272,-4.31115 -2.1682,0 -3.85128,0.71971 -5.03277,2.1521 -3.02982,3.67321 -2.56297,11.38782 0.85592,14.1439 1.9109,1.54044 4.90307,1.82033 7.27953,0.68093 z m 17.03731,3.97941 c -1.47677,-0.45246 -2.19109,-1.0749 -2.84492,-2.47898 l -0.62115,-1.33391 -0.003,-15.80886 -0.003,-15.80885 h 2.24896 2.24896 v 15.08975 c 0,16.4808 0.0204,16.72065 1.45375,17.0804 0.70977,0.17814 2.30648,0.0345 3.07517,-0.27661 0.33668,-0.13627 0.49331,0.0866 0.73483,1.04583 0.16883,0.67046 0.23603,1.33378 0.14934,1.47404 -0.55564,0.89905 -4.6926,1.5525 -6.43977,1.01719 z M 249.05295,205.6419 v -11.90625 h 1.94976 1.94975 l 0.164,0.99219 c 0.0902,0.5457 0.17057,1.52797 0.1786,2.18281 l 0.0146,1.19063 0.50339,-0.95242 c 0.64363,-1.21775 2.15781,-2.54615 3.69311,-3.23999 0.88338,-0.39922 1.7726,-0.5476 3.3387,-0.55712 1.86888,-0.0114 2.33002,0.0868 3.70416,0.78832 1.25331,0.63986 1.73733,1.08147 2.40229,2.19183 l 0.83275,1.39052 0.57167,-0.92498 c 1.38219,-2.23644 3.89075,-3.46619 7.02325,-3.44297 2.59933,0.0193 4.44425,0.74439 5.84843,2.29865 2.15633,2.3868 2.48131,4.25616 2.48395,14.28826 l 0.002,7.60677 h -2.38125 -2.38125 v -7.88948 c 0,-8.91186 -0.14577,-9.89949 -1.68061,-11.38712 -1.82671,-1.77052 -4.90036,-1.6591 -6.8062,0.24674 -1.67967,1.67967 -1.83194,2.62768 -1.83194,11.40497 v 7.62489 h -2.22903 -2.22902 l -0.10772,-8.26823 c -0.1169,-8.97281 -0.22242,-9.70842 -1.58858,-11.07458 -2.29116,-2.29116 -6.22915,-1.23503 -7.93472,2.12801 l -0.7276,1.43469 v 7.89005 7.89006 h -2.38125 -2.38125 z m 40.42041,-7e-5 -0.0714,-11.90633 2.15152,8e-5 2.15152,7e-5 0.18839,2.26164 0.18839,2.26164 0.73338,-1.13716 c 1.6047,-2.48823 3.70438,-3.68063 6.59339,-3.74435 l 1.75174,-0.0386 0.077,1.88333 0.077,1.88332 -1.48551,0.0134 c -2.77905,0.025 -5.30903,1.80723 -6.78952,4.78293 -0.58518,1.17618 -0.61365,1.52321 -0.69199,8.43654 l -0.0817,7.20989 h -2.36039 -2.36039 l -0.0715,-11.90632 z m 16.038,9.45892 c 0.48018,-1.34606 3.06382,-8.85109 5.74142,-16.67782 l 4.86837,-14.23044 2.34505,0.0752 2.34505,0.0752 5.50792,16.06591 c 3.02936,8.83626 5.58458,16.30743 5.67827,16.60261 0.1638,0.51609 0.063,0.53669 -2.62562,0.53669 -1.84544,0 -2.79595,-0.0983 -2.79595,-0.28906 0,-0.15899 -0.42777,-1.64727 -0.95059,-3.3073 l -0.95059,-3.01822 h -6.32545 c -4.45922,0 -6.32546,0.0867 -6.32546,0.29374 0,0.16156 -0.42333,1.64984 -0.94074,3.30729 l -0.94075,3.01355 h -2.75199 -2.752 z m 17.37853,-9.92187 c -2.93204,-9.64542 -4.38438,-14.04954 -4.53993,-13.767 -0.19491,0.35404 -4.73868,14.86645 -4.73868,15.13495 0,0.0844 2.19175,0.1534 4.87054,0.1534 h 4.87054 z m 12.68181,0.46302 v -11.90625 h 2.08359 2.0836 l 0.16536,0.82682 c 0.0909,0.45476 0.16537,1.42767 0.16537,2.16203 v 1.33521 l 0.79578,-1.20141 c 1.5709,-2.37164 3.88753,-3.48845 7.27401,-3.5067 2.09895,-0.0113 2.56389,0.0769 3.92187,0.74366 1.74134,0.85506 2.74348,2.04727 3.66871,4.36457 0.56899,1.42504 0.60058,1.89693 0.68906,10.29092 l 0.0927,8.7974 h -2.245 -2.24499 l -0.10899,-8.13594 c -0.093,-6.94186 -0.17749,-8.31985 -0.57576,-9.38907 -1.05601,-2.83506 -4.27744,-3.85518 -7.29867,-2.31127 -1.17382,0.59985 -2.15235,1.65145 -2.94746,3.16753 -0.60824,1.15977 -0.6266,1.39115 -0.70849,8.92969 l -0.0841,7.73906 h -2.36332 -2.36333 z m 26.45833,0 v -11.90625 h 1.94976 1.94976 l 0.16399,0.99219 c 0.0902,0.5457 0.17058,1.52797 0.17861,2.18281 l 0.0146,1.19063 0.50339,-0.95242 c 0.64363,-1.21775 2.15781,-2.54615 3.69312,-3.23999 0.88338,-0.39922 1.7726,-0.5476 3.33869,-0.55712 1.86888,-0.0114 2.33003,0.0868 3.70417,0.78832 1.25331,0.63986 1.73732,1.08147 2.40229,2.19183 l 0.83274,1.39052 0.57167,-0.92498 c 1.3822,-2.23644 3.89076,-3.46619 7.02325,-3.44297 2.59934,0.0193 4.44425,0.74439 5.84844,2.29865 2.15632,2.3868 2.4813,4.25616 2.48394,14.28826 l 0.002,7.60677 h -2.38125 -2.38125 v -7.88948 c 0,-8.91186 -0.14576,-9.89949 -1.68061,-11.38712 -1.82671,-1.77052 -4.90036,-1.6591 -6.8062,0.24674 -1.67966,1.67967 -1.83194,2.62768 -1.83194,11.40497 v 7.62489 h -2.22902 -2.22903 l -0.10772,-8.26823 c -0.1169,-8.97281 -0.22242,-9.70842 -1.58858,-11.07458 -2.29116,-2.29116 -6.22914,-1.23503 -7.93471,2.12801 l -0.72761,1.43469 v 7.89005 7.89006 h -2.38125 -2.38125 z m 82.21553,0.47301 c -2.41491,-6.29927 -4.47141,-11.66158 -4.56999,-11.91624 -0.16257,-0.41997 0.0424,-0.46302 2.20444,-0.46302 2.36023,0 2.38626,0.007 2.64665,0.7276 0.14463,0.40019 1.45442,4.12089 2.91064,8.26823 1.45621,4.14735 2.7891,7.89782 2.96196,8.33438 0.363,0.91675 0.0946,1.57309 4.35441,-10.64948 l 2.32834,-6.68073 h 2.34797 c 1.29139,0 2.34547,0.0893 2.34242,0.19844 -0.003,0.10914 -2.0187,5.43719 -4.47921,11.8401 l -4.47367,11.64167 -2.0916,0.0761 -2.09161,0.0761 z"
       id="path2219" /></g></svg>
