<?xml version="1.0" encoding="UTF-8" standalone="no"?>
<!-- Created with Inkscape (http://www.inkscape.org/) -->

<svg
   width="342.8363mm"
   height="99.999992mm"
   viewBox="0 0 342.83629 99.999992"
   version="1.1"
   id="svg1"
   inkscape:version="1.4 (e7c3feb1, 2024-10-09)"
   sodipodi:docname="logo.svg"
   xml:space="preserve"
   xmlns:inkscape="http://www.inkscape.org/namespaces/inkscape"
   xmlns:sodipodi="http://sodipodi.sourceforge.net/DTD/sodipodi-0.dtd"
   xmlns="http://www.w3.org/2000/svg"
   xmlns:svg="http://www.w3.org/2000/svg"><sodipodi:namedview
     id="namedview1"
     pagecolor="#ffffff"
     bordercolor="#000000"
     borderopacity="0.25"
     inkscape:showpageshadow="2"
     inkscape:pageopacity="0.0"
     inkscape:pagecheckerboard="0"
     inkscape:deskcolor="#d1d1d1"
     inkscape:document-units="mm"
     inkscape:zoom="0.37588663"
     inkscape:cx="621.19793"
     inkscape:cy="204.849"
     inkscape:window-width="1440"
     inkscape:window-height="809"
     inkscape:window-x="0"
     inkscape:window-y="0"
     inkscape:window-maximized="1"
     inkscape:current-layer="g1" /><defs
     id="defs1" /><g
     inkscape:label="Layer 1"
     inkscape:groupmode="layer"
     id="layer1"
     transform="translate(-78.861912,-98.500004)"><g
       id="g1"
       transform="matrix(1.0197144,0,0,1.0197144,28.139616,-7.5311737)"
       style="stroke-width:0.980667"><g
         id="g13"><path
           id="rect22"
           style="fill:#c83737;fill-opacity:1;stroke-width:1.96133;stroke-linecap:square;paint-order:markers fill stroke"
           d="m 87.074712,103.98125 c 20.682508,0 37.333048,16.65054 37.333048,37.33305 v 23.40058 c 0,20.6825 -16.65054,37.33304 -37.333048,37.33304 -20.682505,0 -37.333043,-16.65054 -37.333043,-37.33304 V 141.3143 c 0,-20.68251 16.650538,-37.33305 37.333043,-37.33305 z" /><path
           id="path130"
           style="fill:#ffffff;stroke-width:0.980665;stroke-linecap:square;paint-order:markers fill stroke"
           d="m 86.824374,127.11982 c -4.430919,0.0663 -8.773468,1.82758 -12.029259,5.08341 l -1.648991,1.64951 3.298512,3.29799 1.648991,-1.64899 c 3.636882,-3.63686 9.089795,-4.72259 13.841527,-2.75436 4.751732,1.96823 7.83778,6.59198 7.83778,11.73521 v 5.43223 c -3.176813,-3.46036 -7.649004,-5.73144 -12.698447,-5.73144 -9.562432,0 -17.362769,7.80037 -17.362769,17.36277 0,9.56243 7.800337,17.36276 17.362769,17.36276 9.562432,0 17.362753,-7.80033 17.362753,-17.36276 v -17.06356 c 0,-7.01637 -4.23445,-13.35532 -10.716654,-16.04037 -2.228251,-0.92298 -4.575218,-1.35716 -6.896212,-1.3224 z m 0.250252,21.72788 c 7.041849,0 12.698447,5.6566 12.698447,12.69845 0,7.04185 -5.656598,12.69845 -12.698447,12.69845 -7.041849,0 -12.698447,-5.6566 -12.698447,-12.69845 0,-7.04185 5.656598,-12.69845 12.698447,-12.69845 z" /></g><g
         id="g14"
         transform="translate(87.180691)"><path
           id="path13"
           style="fill:#f5b400;fill-opacity:1;stroke-width:1.96133;stroke-linecap:square;paint-order:markers fill stroke"
           d="m 87.074712,103.98125 c 20.682508,0 37.333048,16.65054 37.333048,37.33305 v 23.40058 c 0,20.6825 -16.65054,37.33304 -37.333048,37.33304 -20.682505,0 -37.333043,-16.65054 -37.333043,-37.33304 V 141.3143 c 0,-20.68251 16.650538,-37.33305 37.333043,-37.33305 z" /></g><g
         id="g16"
         transform="translate(174.36138)"><path
           id="path15"
           style="fill:#2ca089;fill-opacity:1;stroke-width:1.96133;stroke-linecap:square;paint-order:markers fill stroke"
           d="m 87.074712,103.98125 c 20.682508,0 37.333048,16.65054 37.333048,37.33305 v 23.40058 c 0,20.6825 -16.65054,37.33304 -37.333048,37.33304 -20.682505,0 -37.333043,-16.65054 -37.333043,-37.33304 V 141.3143 c 0,-20.68251 16.650538,-37.33305 37.333043,-37.33305 z" /></g><g
         id="g18"
         transform="translate(261.54207)"><path
           id="path17"
           style="fill:#013d98;fill-opacity:1;stroke-width:1.96133;stroke-linecap:square;paint-order:markers fill stroke"
           d="m 87.074712,103.98125 c 20.682508,0 37.333048,16.65054 37.333048,37.33305 v 23.40058 c 0,20.6825 -16.65054,37.33304 -37.333048,37.33304 -20.682505,0 -37.333043,-16.65054 -37.333043,-37.33304 V 141.3143 c 0,-20.68251 16.650538,-37.33305 37.333043,-37.33305 z" /></g></g><g
       id="g10"
       transform="matrix(0.79867555,0,0,0.79867555,-197.962,44.234836)"
       style="stroke-width:1.25207" /></g></svg>
