<?xml version="1.0" encoding="UTF-8" standalone="no"?>
<!-- Created with Inkscape (http://www.inkscape.org/) -->

<svg
   width="100mm"
   height="100mm"
   viewBox="0 0 99.999999 100"
   version="1.1"
   id="svg1"
   inkscape:version="1.4 (e7c3feb1, 2024-10-09)"
   sodipodi:docname="navbutton.svg"
   xmlns:inkscape="http://www.inkscape.org/namespaces/inkscape"
   xmlns:sodipodi="http://sodipodi.sourceforge.net/DTD/sodipodi-0.dtd"
   xmlns="http://www.w3.org/2000/svg"
   xmlns:svg="http://www.w3.org/2000/svg">
  <sodipodi:namedview
     id="namedview1"
     pagecolor="#ffffff"
     bordercolor="#000000"
     borderopacity="0.25"
     inkscape:showpageshadow="2"
     inkscape:pageopacity="0.0"
     inkscape:pagecheckerboard="0"
     inkscape:deskcolor="#d1d1d1"
     inkscape:document-units="mm"
     inkscape:zoom="0.93796932"
     inkscape:cx="179.11034"
     inkscape:cy="150.32475"
     inkscape:window-width="1440"
     inkscape:window-height="809"
     inkscape:window-x="0"
     inkscape:window-y="0"
     inkscape:window-maximized="1"
     inkscape:current-layer="layer1"
     showgrid="false" />
  <defs
     id="defs1" />
  <g
     inkscape:label="Layer 1"
     inkscape:groupmode="layer"
     id="layer1"
     transform="translate(-66.930956,-98.500002)">
    <g
       id="g1"
       transform="matrix(1.6558843,0,0,1.6558843,-27.2547,-104.87445)"
       style="stroke-width:0.603907">
      <path
         id="rect22"
         style="fill:#1a1a1a;fill-opacity:1;stroke-width:1.20781;stroke-linecap:square;paint-order:markers fill stroke"
         d="m 87.074714,143.56191 c 3.987185,0 7.197086,3.2099 7.197086,7.19709 v 4.51118 c 0,3.98718 -3.209901,7.19708 -7.197086,7.19708 -3.987185,0 -7.197085,-3.2099 -7.197085,-7.19708 V 150.759 c 0,-3.98719 3.2099,-7.19709 7.197085,-7.19709 z" />
      <path
         id="path1"
         style="fill:#1a1a1a;fill-opacity:1;stroke-width:1.20781;stroke-linecap:square;paint-order:markers fill stroke"
         d="m 110.07297,143.56191 c 3.98719,0 7.19709,3.2099 7.19709,7.19709 v 4.51118 c 0,3.98718 -3.2099,7.19708 -7.19709,7.19708 -3.98718,0 -7.19708,-3.2099 -7.19708,-7.19708 V 150.759 c 0,-3.98719 3.2099,-7.19709 7.19708,-7.19709 z" />
      <path
         id="path2"
         style="fill:#1a1a1a;fill-opacity:1;stroke-width:1.20781;stroke-linecap:square;paint-order:markers fill stroke"
         d="m 64.076449,143.56191 c 3.98719,0 7.19709,3.2099 7.19709,7.19709 v 4.51118 c 0,3.98718 -3.2099,7.19708 -7.19709,7.19708 -3.98718,0 -7.19708,-3.2099 -7.19708,-7.19708 V 150.759 c 0,-3.98719 3.2099,-7.19709 7.19708,-7.19709 z" />
    </g>
  </g>
</svg>
